# xmcd
#
# Track frame offsets:
#	183
#	13468
#	25710
#	38955
#	59593
#	78298
#	92683
#	104993
#	119648
#	135270
#
# Disc length: 2145 seconds
# Revision: 5
# Processed by: cddbd v1.5.2PL0 Copyright (c) Steve Scherf et al.
# Submitted via: dBpowerAMP V12.0
#
DISCID=88085f0a
DTITLE=Hank Williams, Jr. - Five-O
DYEAR=1985
DGENRE=Country
TTITLE0=I'm for Love
TTITLE1=I Really Like Girls
TTITLE2=The Nashville Scene
TTITLE3=Ain't Misbehavin'
TTITLE4=Something to Believe In
TTITLE5=Lawyers, Guns and Money
TTITLE6=This Ain't Dallas
TTITLE7=I've Been Around
TTITLE8=New Orleans
TTITLE9=Outlaw's Reward
EXTD=
EXTT0=
EXTT1=
EXTT2=
EXTT3=
EXTT4=
EXTT5=
EXTT6=
EXTT7=
EXTT8=
EXTT9=
PLAYORDER=
